# AST/ASF file generated using VICON BodyLanguage
# -----------------------------------------------
:version 1.10
:name VICON
:units
  mass 1.0
  length 0.45
  angle deg
:documentation
   .ast/.asf automatically generated from VICON data using
   VICON BodyBuilder and BodyLanguage model FoxedUp or BRILLIANT.MOD
:root
   order TX TY TZ RX RY RZ
   axis XYZ
   position 0 0 0  
   orientation 0 0 0 
:bonedata
  begin
     id 1 
     name lhipjoint
     direction 0.54267 -0.795011 0.271047 
     length 2.39899 
     axis 0 0 0  XYZ
  end
  begin
     id 2 
     name lfemur
     direction 0.34202 -0.939693 0  
     length 7.49701  
     axis 0 0 20  XYZ
    dof rx ry rz
    limits (-160.0 20.0)
           (-70.0 70.0)
           (-60.0 70.0)
  end
  begin
     id 3 
     name ltibia
     direction 0.34202 -0.939693 0   
     length 8.1668   
     axis 0 0 20   XYZ
    dof rx
    limits (-10.0 170.0)
  end
  begin
     id 4 
     name lfoot
     direction 0.0736283 -0.202292 0.976554   
     length 2.13544   
     axis -90 7.62852e-016 20   XYZ
    dof rx rz
    limits (-45.0 90.0)
           (-70.0 20.0)
  end
  begin
     id 5 
     name ltoes
     direction 1.53557e-011 -4.22024e-011 1   
     length 1.07411   
     axis -90 7.62852e-016 20   XYZ
    dof rx
    limits (-90.0 20.0)
  end
  begin
     id 6 
     name rhipjoint
     direction -0.538061 -0.797813 0.272002   
     length 2.39057  
     axis 0 0 0  XYZ 
  end
  begin
     id 7 
     name rfemur
     direction -0.34202 -0.939693 0   
     length 7.50152   
     axis 0 0 -20   XYZ
    dof rx ry rz
    limits (-160.0 20.0)
           (-70.0 70.0)
           (-70.0 60.0)
  end
  begin
     id 8 
     name rtibia
     direction -0.34202 -0.939693 0   
     length 8.05793   
     axis 0 0 -20   XYZ
    dof rx
    limits (-10.0 170.0)
 end
 begin
     id 9 
     name rfoot
     direction -0.0765195 -0.210236 0.974652   
     length 2.28698  
     axis -90 -7.62852e-016 -20   XYZ
    dof rx rz
    limits (-45.0 90.0)
           (-20.0 70.0)
  end
  begin
     id 10 
     name rtoes
     direction -1.53542e-011 -4.21847e-011 1   
     length 1.14762   
     axis -90 -7.62852e-016 -20   XYZ
    dof rx
    limits (-90.0 20.0)
  end
  begin
     id 11 
     name lowerback
     direction -0.0217239 0.996592 -0.0795765   
     length 2.08176   
     axis 0 0 0   XYZ
    dof rx ry rz
    limits (-20.0 45.0)
           (-30.0 30.0)
           (-30.0 30.0)
  end
  begin
     id 12 
     name upperback
     direction -0.00563773 0.999651 -0.0258155   
     length 2.08898   
     axis 0 0 0   XYZ
    dof rx ry rz
    limits (-20.0 45.0)
           (-30.0 30.0)
           (-30.0 30.0)
  end
  begin
     id 13 
     name thorax
     direction 0.0032706 0.999923 0.0119599   
     length 2.0968   
     axis 0 0 0   XYZ
    dof rx ry rz
    limits (-20.0 45.0)
           (-30.0 30.0)
           (-30.0 30.0)
  end
  begin
     id 14 
     name lowerneck
     direction -0.0285886 0.99568 0.0883427   
     length 1.81272   
     axis 0 0 0   XYZ
    dof rx ry rz
    limits (-20.0 45.0)
           (-30.0 30.0)
           (-30.0 30.0)
  end
  begin
     id 15 
     name upperneck
     direction 0.0807535 0.97985 -0.18268   
     length 1.82518   
     axis 0 0 0   XYZ
    dof rx ry rz
    limits (-20.0 45.0)
           (-30.0 30.0)
           (-30.0 30.0)
  end
  begin
     id 16
     name head
     direction 0.0236605 0.997053 -0.0729767  
     length 1.84443  
     axis 0 0 0   XYZ
    dof rx ry rz
    limits (-20.0 45.0)
           (-30.0 30.0)
           (-30.0 30.0)
  end
  begin
     id 17 
     name lclavicle
     direction 0.918986 0.39378 -0.0200683  
     length 3.27822  
     axis 0 0 0   XYZ
    dof ry rz
    limits (-20.0 10.0)
           (0.0 20.0)
  end
  begin
     id 18 
     name lhumerus
     direction 1 -4.4897e-011 2.09544e-027   
     length 5.5568   
     axis 180 -30 -90   XYZ
    dof rx ry rz
    limits (-60.0 90.0)
           (-90.0 90.0)
           (-90.0 90.0)
  end
  begin
     id 19
     name lradius
     direction 1 -4.48957e-011 -1.27696e-026   
     length 3.63979   
     axis 180 -30 -90   XYZ
    dof rx
    limits (-10.0 170.0)
  end
  begin
     id 20
     name lwrist
     direction 1 -4.49001e-011 -1.49001e-026   
     length 1.8199   
     axis 9.0955e-015 90 90   XYZ
    dof ry
    limits (-180.0 0.0)
 end
  begin
     id 21 
     name lhand
     direction 1 -4.48709e-011 -2.9758e-026   
     length 0.569419   
     axis 1.90115e-014 90 90   XYZ
    dof rx rz
    limits (-90.0 90.0)
           (-45.0 45.0)
  end
  begin
     id 22 
     name lfingers
     direction 1 -4.49175e-011 -5.96505e-026   
     length 0.45908   
     axis 3.80223e-014 90 90   XYZ
    dof rx
    limits (0.0 90.0)
  end
  begin
     id 23
     name lthumb
     direction 0.707107 -6.34864e-011 0.707107   
     length 0.65915   
     axis -90 45 -3.84942e-014   XYZ
    dof rx rz
    limits (-45.0 45.0)
           (-45.0 45.0)
  end
  begin
     id 24 
     name rclavicle
     direction -0.911913 0.396426 -0.106115   
     length 3.46301  
     axis 0 0 0   XYZ 
    dof ry rz
    limits (-10.0 20.0)
           (-20.0 0.0)
  end
  begin
     id 25 
     name rhumerus
     direction -1 -4.48965e-011 7.78516e-028  
     length 5.34339   
     axis 180 30 90   XYZ
    dof rx ry rz
    limits (-90.0 60.0)
           (-90.0 90.0)
           (-90.0 90.0)
  end
  begin
     id 26 
     name rradius
     direction -1 -4.48948e-011 -5.79823e-027   
     length 3.65101   
     axis 180 30 90   XYZ
    dof rx
    limits (-10.0 170.0)
  end
  begin
     id 27 
     name rwrist
     direction -1 -4.48995e-011 -1.48996e-026   
     length 1.8255   
     axis 9.0955e-015 -90 -90   XYZ
    dof ry
    limits (-180.0 0.0)
  end
  begin
     id 28
     name rhand
     direction -1 -4.48957e-011 -2.97937e-026   
     length 0.694249   
     axis 1.90115e-014 -90 -90   XYZ
    dof rx rz
    limits (-90.0 90.0)
           (-45.0 45.0)
  end
  begin
     id 29
     name rfingers
     direction -1 -4.4898e-011 -5.95943e-026   
     length 0.559721   
     axis 3.80223e-014 -90 -90   XYZ
    dof rx
    limits (0.0 90.0)
  end
  begin
     id 30
     name rthumb
     direction -0.707107 -6.34969e-011 0.707107   
     length 0.803651   
     axis -90 -45 3.84942e-014   XYZ
    dof rx rz
    limits (-45.0 45.0)
           (-45.0 45.0)
  end
:hierarchy
  begin
    root lhipjoint rhipjoint lowerback
    lhipjoint lfemur
    lfemur ltibia
    ltibia lfoot
    lfoot ltoes
    rhipjoint rfemur
    rfemur rtibia
    rtibia rfoot
    rfoot rtoes
    lowerback upperback
    upperback thorax
    thorax lowerneck lclavicle rclavicle
    lowerneck upperneck
    upperneck head
    lclavicle lhumerus
    lhumerus lradius
    lradius lwrist
    lwrist lhand lthumb
    lhand lfingers
    rclavicle rhumerus
    rhumerus rradius
    rradius rwrist
    rwrist rhand rthumb
    rhand rfingers
  end

#!OML:ASF H:\Terrain\Walking\May29\JustinRory\rory.ASF
:FULLY-SPECIFIED
:DEGREES
183
root 14.62 18.9215 16.3213 0.0274739 -11.8611 2.7907
lowerback 2.99103 -3.2695 -4.58551
upperback 1.745 -4.474 1.45521
thorax 0.592136 -2.29328 4.15472
lowerneck 1.34355 -16.7067 -13.9256
upperneck 20.7161 -25.2472 11.933
head 9.6642 -12.2751 3.57343
rclavicle -4.63665e-014 2.78299e-015
rhumerus -42.6637 18.0126 -86.8738
rradius 131.094
rwrist -14.0146
rhand -22.9809 52.7488
rfingers 7.12502
rthumb 3.46158 22.7972
lclavicle -4.63665e-014 2.78299e-015
lhumerus -33.0611 -16.7115 86.184
lradius 116.301
lwrist 26.1954
lhand -16.9135 14.1331
lfingers 7.12502
lthumb 9.31884 43.9072
rfemur -9.03196 6.2222 12.5488
rtibia 55.9906
rfoot 6.48751 -6.91232
rtoes 0.997631
lfemur -11.2148 0.183387 -21.2914
ltibia 21.6117
lfoot -10.1716 3.19614
ltoes 11.8651
184
root 14.6712 18.9595 16.4544 -0.355018 -11.0698 3.87836
lowerback 3.24279 -3.48261 -5.52198
upperback 1.73128 -4.79483 1.13354
thorax 0.523162 -2.45765 4.36461
lowerneck 1.28285 -16.7915 -13.9767
upperneck 20.9077 -25.4078 11.9778
head 9.78135 -12.3409 3.55503
rclavicle 4.47266e-014 -1.15295e-014
rhumerus -41.6213 17.0547 -86.023
rradius 131.635
rwrist -14.2857
rhand -22.6925 53.0863
rfingers 7.12502
rthumb 3.74003 23.1394
lclavicle 4.47266e-014 -1.15295e-014
lhumerus -33.523 -17.2135 87.651
lradius 116.162
lwrist 24.3534
lhand -15.276 13.9539
lfingers 7.12502
lthumb 10.8985 43.651
rfemur -10.149 4.96736 11.2528
rtibia 57.2332
rfoot 5.86768 -6.86699
rtoes -1.61743
lfemur -10.3912 -0.167432 -22.8277
ltibia 21.3075
lfoot -10.2438 2.87306
ltoes 8.76391
185
root 14.6989 18.9585 16.5775 -0.532955 -11.016 4.17067
lowerback 3.3399 -3.44893 -5.90924
upperback 1.73491 -4.76645 1.04731
thorax 0.494778 -2.44547 4.49758
lowerneck 1.36477 -16.7932 -13.9291
upperneck 20.8919 -25.446 12.0786
head 9.77515 -12.3538 3.58376
rclavicle -1.71949e-014 5.1684e-015
rhumerus -40.2454 15.7282 -85.3573
rradius 131.765
rwrist -14.1674
rhand -22.6586 52.9948
rfingers 7.12502
rthumb 3.77277 23.0485
lclavicle -1.71949e-014 5.1684e-015
lhumerus -33.9541 -17.8565 89.026
lradius 116.033
lwrist 22.5667
lhand -15.9691 13.408
lfingers 7.12502
lthumb 10.23 43.1393
rfemur -11.0152 4.5557 11.0859
rtibia 58.3166
rfoot 4.91337 -7.20034
rtoes -6.21591
lfemur -9.61271 -0.00336822 -23.3399
ltibia 20.8423
lfoot -10.3468 2.81183
ltoes 6.6947
186
root 14.7228 18.9536 16.6901 -0.461169 -11.2813 3.81088
lowerback 3.49028 -3.23684 -5.55082
upperback 1.60831 -4.48451 1.09772
thorax 0.220893 -2.29014 4.36303
lowerneck 1.69004 -16.8416 -13.9848
upperneck 20.6948 -25.5723 12.3011
head 9.707 -12.424 3.67488
rclavicle -5.57094e-014 1.74931e-014
rhumerus -39.7544 14.4094 -84.5677
rradius 132.284
rwrist -13.6833
rhand -23.2563 53.1615
rfingers 7.12502
rthumb 3.1956 23.2057
lclavicle -5.57094e-014 1.74931e-014
lhumerus -34.3637 -18.823 90.3982
lradius 116.017
lwrist 21.2946
lhand -16.8783 13.3168
lfingers 7.12502
lthumb 9.35273 43.0893
rfemur -12.0502 4.62581 11.6661
rtibia 59.3274
rfoot 4.14461 -7.83684
rtoes -5.87006
lfemur -8.90465 0.243034 -23.0782
ltibia 20.1477
lfoot -10.4338 2.7918
ltoes 8.42373
187
root 14.7503 18.9522 16.8089 -0.605536 -11.3153 4.14069
lowerback 3.42567 -3.15992 -5.86984
upperback 1.71079 -4.3859 0.945359
thorax 0.364142 -2.24904 4.3737
lowerneck 1.70448 -16.921 -14.0952
upperneck 20.6342 -25.7394 12.5625
head 9.76294 -12.4923 3.74268
rclavicle -9.75536e-014 5.96354e-015
rhumerus -39.193 13.4442 -83.6713
rradius 132.823
rwrist -13.2274
rhand -24.1418 53.4871
rfingers 7.12502
rthumb 2.3404 23.5202
lclavicle -9.75536e-014 5.96354e-015
lhumerus -34.333 -19.445 91.3133
lradius 116.111
lwrist 20.2656
lhand -15.9711 14.1267
lfingers 7.12502
lthumb 10.2281 43.858
rfemur -12.9517 4.46021 11.3637
rtibia 60.1418
rfoot 3.40441 -8.11254
rtoes -3.89322
lfemur -8.35917 0.413763 -23.6084
ltibia 20.0155
lfoot -10.8098 2.47711
ltoes 10.6431
188
root 14.7834 18.9522 16.9215 -0.696383 -11.0984 4.50617
lowerback 3.2022 -3.21719 -6.24557
upperback 1.94179 -4.45268 0.831325
thorax 0.756869 -2.3036 4.44147
lowerneck 1.50491 -17.0267 -14.2567
upperneck 20.6314 -25.9293 12.8318
head 9.89045 -12.5583 3.79106
rclavicle -3.67255e-014 5.56597e-015
rhumerus -37.9054 12.4298 -82.6677
rradius 133.145
rwrist -13.0156
rhand -24.4707 53.0097
rfingers 7.12502
rthumb 2.0228 23.0396
lclavicle -3.67255e-014 5.56597e-015
lhumerus -34.0292 -19.8588 92.0496
lradius 116.217
lwrist 19.2636
lhand -14.9495 14.2998
lfingers 7.12502
lthumb 11.2135 43.9801
rfemur -13.8592 4.04643 11.0004
rtibia 60.7518
rfoot 2.63329 -8.11638
rtoes -3.64729
lfemur -8.00133 0.419 -24.2105
ltibia 20.0683
lfoot -11.148 2.19773
ltoes 10.8756
189
root 14.8107 18.9526 17.0332 -0.620244 -10.9437 4.16893
lowerback 3.11431 -3.23 -5.96194
upperback 2.07869 -4.45399 0.935729
thorax 0.933632 -2.31119 4.38008
lowerneck 1.45314 -17.1624 -14.4571
upperneck 20.4698 -26.1697 13.1798
head 9.96164 -12.6573 3.87667
rclavicle 4.38817e-014 -1.03368e-014
rhumerus -36.6505 11.346 -81.6008
rradius 133.532
rwrist -12.9093
rhand -24.7089 51.5607
rfingers 7.12502
rthumb 1.79268 21.5885
lclavicle 4.38817e-014 -1.03368e-014
lhumerus -33.9743 -20.0744 92.9395
lradius 116.457
lwrist 18.4025
lhand -14.5557 13.644
lfingers 7.12502
lthumb 11.5932 43.3033
rfemur -14.7622 3.86928 11.5305
rtibia 61.1561
rfoot 1.80965 -8.55056
rtoes -3.85543
lfemur -7.70922 0.315162 -24.0179
ltibia 20.1721
lfoot -11.5142 2.10637
ltoes 10.9747
190
root 14.8336 18.945 17.1501 -0.549499 -10.7001 3.75132
lowerback 3.00643 -3.26755 -5.61753
upperback 2.20605 -4.48767 1.08211
thorax 1.11394 -2.33381 4.32726
lowerneck 1.47546 -17.2757 -14.6081
upperneck 20.1774 -26.3408 13.4467
head 9.94291 -12.7351 3.95297
rclavicle -8.84592e-015 1.19271e-015
rhumerus -35.7434 10.1554 -80.6651
rradius 133.9
rwrist -12.9629
rhand -25.3976 52.2951
rfingers 7.12502
rthumb 1.12756 22.3183
lclavicle -8.84592e-015 1.19271e-015
lhumerus -33.901 -20.0651 93.7088
lradius 116.799
lwrist 17.7778
lhand -13.9091 13.6282
lfingers 7.12502
lthumb 12.2168 43.2515
rfemur -15.4024 3.62658 12.1774
rtibia 61.3872
rfoot 1.06691 -8.97994
rtoes -4.12837
lfemur -7.46641 0.158327 -23.7289
ltibia 20.4789
lfoot -12.0193 1.98248
ltoes 10.6106
191
root 14.8541 18.9345 17.2611 -0.427412 -10.5383 3.63317
lowerback 2.96725 -3.30039 -5.63238
upperback 2.17838 -4.53044 1.15354
thorax 1.11949 -2.35568 4.40788
lowerneck 1.60343 -17.3028 -14.5932
upperneck 19.9816 -26.3639 13.4775
head 9.85614 -12.7558 3.97329
rclavicle 8.89561e-015 -4.37326e-015
rhumerus -35.3272 9.08729 -79.6919
rradius 134.414
rwrist -13.4347
rhand -25.4346 53.2235
rfingers 7.12502
rthumb 1.09187 23.2465
lclavicle 8.89561e-015 -4.37326e-015
lhumerus -33.855 -19.8099 94.2037
lradius 117.124
lwrist 17.415
lhand -13.2735 13.3598
lfingers 7.12502
lthumb 12.8295 42.9455
rfemur -16.1659 3.42116 12.4713
rtibia 61.5022
rfoot 0.461299 -9.14304
rtoes -3.58749
lfemur -7.46587 -0.127315 -23.7587
ltibia 20.973
lfoot -12.6047 1.99908
ltoes 10.1307
